#!OML:ASF E:\Mandelcareful walks\Project 1\Capture day 1\Session 1\Subject1.ASF
:FULLY-SPECIFIED
:DEGREES
1125
root 9.95083 14.2894 7.50917 -189.413 251.692 -498.328
lowerback 16.2428 -1.01126 4.44063
upperback 6.68398 -0.881271 2.59415
thorax -1.99861 -0.525283 0.376115
lowerneck -26.3486 -10.6224 -13.5736
upperneck 21.4311 -14.2002 15.7251
head 13.9307 -5.37963 5.54434
rclavicle 5.24792e-014 3.65764e-014
rhumerus -5.27077 -9.14608 -74.7336
rradius 55.5746
rwrist -27.2249
rhand -17.3021 -24.7087
rfingers 7.12502
rthumb 8.9438 -54.4991
lclavicle 5.24792e-014 3.65764e-014
lhumerus -14.7734 -23.1759 82.6214
lradius 69.9804
lwrist 18.0313
lhand -29.0307 -19.7469
lfingers 7.12502
lthumb -2.3814 10.2195
rfemur -74.7579 -12.3186 6.63127
rtibia 85.8009
rfoot -23.4959 17.648
rtoes 19.2779
lfemur -84.0147 2.36793 -14.1282
ltibia 51.0705
lfoot 2.24185 -10.0348
ltoes -30.3204
1126
root 9.8617 14.3148 7.69587 -192.035 253.191 -495.739
lowerback 16.1936 -0.773209 4.10238
upperback 6.78069 -0.642743 2.499
thorax -1.86438 -0.413292 0.4224
lowerneck -26.5713 -10.7584 -13.8486
upperneck 21.3337 -14.4273 16.2859
head 14.0666 -5.42613 5.76302
rclavicle -1.90833e-014 -3.33958e-014
rhumerus -5.26849 -8.47481 -74.8059
rradius 55.4852
rwrist -27.5688
rhand -17.617 -27.5896
rfingers 7.12502
rthumb 8.64 -57.3928
lclavicle -1.90833e-014 -3.33958e-014
lhumerus -14.6413 -24.4159 82.7996
lradius 69.8896
lwrist 15.24
lhand -28.7621 -18.8216
lfingers 7.12502
lthumb -2.12191 11.1476
rfemur -74.235 -11.7368 6.03324
rtibia 85.4059
rfoot -23.3093 18.2714
rtoes 19.9927
lfemur -83.6884 2.79553 -13.9894
ltibia 52.4409
lfoot 0.77591 -9.94089
ltoes -29.8498
1127
root 9.76997 14.3344 7.88811 -194.827 254.577 -492.936
lowerback 16.0412 -0.593579 3.71887
upperback 6.88153 -0.488799 2.50767
thorax -1.67372 -0.34515 0.617548
lowerneck -26.8361 -10.9565 -14.4304
upperneck 21.0387 -14.6814 17.1676
head 14.2037 -5.47501 6.15483
rclavicle 2.8625e-014 -1.27222e-014
rhumerus -5.08503 -7.97581 -74.7782
rradius 54.7237
rwrist -27.239
rhand -17.7313 -27.4292
rfingers 7.12502
rthumb 8.5296 -57.2369
lclavicle 2.8625e-014 -1.27222e-014
lhumerus -14.5945 -25.2552 83.084
lradius 69.9718
lwrist 13.2186
lhand -28.0215 -18.9215
lfingers 7.12502
lthumb -1.40669 11.0536
rfemur -73.7649 -11.2263 5.44577
rtibia 85.0109
rfoot -23.1675 18.8636
rtoes 20.9401
lfemur -83.4597 3.20181 -14.0218
ltibia 54.0086
lfoot -0.589839 -9.94664
ltoes -26.7463
1128
root 9.68886 14.3508 8.09422 -197.738 255.515 -489.858
lowerback 15.8645 -0.574158 3.47934
upperback 6.81568 -0.504435 2.44886
thorax -1.65124 -0.355556 0.691333
lowerneck -26.3453 -10.3911 -13.8108
upperneck 21.2942 -13.8912 16.151
head 13.8857 -5.22453 5.83006
rclavicle -1.43125e-014 3.49861e-014
rhumerus -5.19883 -7.76147 -74.7255
rradius 53.6279
rwrist -26.4472
rhand -18.6539 -26.0879
rfingers 7.12502
rthumb 7.63922 -55.9299
lclavicle -1.43125e-014 3.49861e-014
lhumerus -14.8127 -26.3596 83.4578
lradius 70.0829
lwrist 12.6463
lhand -27.7317 -20.2997
lfingers 7.12502
lthumb -1.12676 9.67708
rfemur -73.3847 -11.2208 4.66427
rtibia 84.5979
rfoot -23.2275 19.345
rtoes 20.741
lfemur -83.585 3.16654 -14.3711
ltibia 55.5777
lfoot -2.16602 -10.1125
ltoes -22.9402
1129
root 9.61605 14.3442 8.31422 -199.324 256.041 -487.415
lowerback 14.9631 -0.68739 3.61582
upperback 6.70608 -0.665455 2.32492
thorax -1.29516 -0.421331 0.498537
lowerneck -26.7692 -10.4959 -13.7598
upperneck 21.3661 -14.0995 16.3785
head 14.0617 -5.26161 5.86478
rclavicle 1.90833e-014 8.5875e-014
rhumerus -5.08829 -8.18038 -74.7716
rradius 52.3535
rwrist -24.9917
rhand -19.3272 -24.528
rfingers 7.12502
rthumb 6.98928 -54.3926
lclavicle 1.90833e-014 8.5875e-014
lhumerus -14.4239 -27.1057 83.4949
lradius 70.3481
lwrist 10.3755
lhand -26.3713 -18.9838
lfingers 7.12502
lthumb 0.187086 10.9959
rfemur -73.7918 -11.8574 3.95057
rtibia 84.2831
rfoot -23.3363 19.7969
rtoes 19.7416
lfemur -84.7773 2.75692 -14.8249
ltibia 57.0678
lfoot -3.68314 -9.59531
ltoes -21.8245
1130
root 9.51813 14.3895 8.51793 -201.915 257.127 -485.097
lowerback 15.3514 -1.14283 2.77184
upperback 6.72027 -1.35374 3.10921
thorax -1.46161 -0.798681 1.91512
lowerneck -26.9154 -10.0913 -14.9813
upperneck 21.4685 -12.9904 16.3924
head 14.0166 -4.88125 6.34803
rclavicle 7.95139e-015 3.97569e-014
rhumerus -4.52031 -5.50725 -74.2098
rradius 51.4323
rwrist -24.9457
rhand -20.1099 -24.6119
rfingers 7.12502
rthumb 6.2337 -54.5002
lclavicle 7.95139e-015 3.97569e-014
lhumerus -15.062 -25.1827 84.8178
lradius 70.4338
lwrist 9.46671
lhand -25.3542 -19.4632
lfingers 7.12502
lthumb 1.16952 10.5134
rfemur -72.6703 -11.2524 3.32494
rtibia 83.6019
rfoot -23.5173 20.0779
rtoes 19.5639
lfemur -84.3847 2.94034 -14.9937
ltibia 58.3404
lfoot -4.97523 -8.99223
ltoes -21.2571
1131
root 9.43815 14.4064 8.72877 -203.564 257.586 -483.211
lowerback 15.3064 -1.30696 2.93834
upperback 6.58375 -1.536 3.09021
thorax -1.58358 -0.884166 1.83224
lowerneck -27.0174 -10.1406 -14.8676
upperneck 21.4422 -13.1107 16.444
head 14.0465 -4.91352 6.31945
rclavicle -1.74931e-014 6.04305e-014
rhumerus -4.81903 -5.52976 -74.164
rradius 50.6703
rwrist -24.694
rhand -20.1707 -24.1081
rfingers 7.12502
rthumb 6.17506 -53.9981
lclavicle -1.74931e-014 6.04305e-014
lhumerus -14.888 -25.8239 85.0862
lradius 70.5471
lwrist 9.46115
lhand -24.3602 -19.4746
lfingers 7.12502
lthumb 2.12947 10.4945
rfemur -72.2152 -11.4302 2.48247
rtibia 83.1061
rfoot -23.2909 20.5164
rtoes 19.3983
lfemur -84.7778 2.47019 -15.2314
ltibia 59.5181
lfoot -5.70099 -8.61981
ltoes -19.2255
1132
root 9.33827 14.4516 8.9178 -207.202 258.546 -479.866
lowerback 15.874 -0.973277 3.11107
upperback 6.50564 -1.05659 2.78502
thorax -1.97983 -0.644849 1.35033
lowerneck -26.5619 -10.3584 -14.4123
upperneck 21.2172 -13.7414 16.6989
head 13.9802 -5.14293 6.19254
rclavicle -6.36111e-015 3.81667e-014
rhumerus -5.71617 -6.607 -74.1835
rradius 49.9377
rwrist -24.6803
rhand -20.3557 -23.7593
rfingers 7.12502
rthumb 5.99638 -53.6545
lclavicle -6.36111e-015 3.81667e-014
lhumerus -14.6774 -27.8013 84.9526
lradius 70.7117
lwrist 9.73947
lhand -23.8592 -19.3736
lfingers 7.12502
lthumb 2.61331 10.5901
rfemur -71.1557 -10.5766 1.62714
rtibia 82.4787
rfoot -23.1651 20.6536
rtoes 18.4417
lfemur -84.1789 2.59364 -15.343
ltibia 60.5613
lfoot -6.77783 -8.52496
ltoes -17.0064
1133
root 9.22425 14.4687 9.10432 -212.283 259.453 -474.552
lowerback 15.6372 -0.461604 3.09859
upperback 6.53083 -0.417044 2.30959
thorax -1.83287 -0.320883 0.74411
lowerneck -26.6665 -10.726 -13.6209
upperneck 21.0653 -14.6327 16.875
head 14.066 -5.43681 5.90767
rclavicle -1.90833e-014 -1.27222e-014
rhumerus -6.42271 -8.32019 -74.3868
rradius 49.2496
rwrist -24.5275
rhand -20.3401 -23.797
rfingers 7.12502
rthumb 6.01151 -53.6917
lclavicle -1.90833e-014 -1.27222e-014
lhumerus -13.9517 -30.1412 84.3151
lradius 70.7735
lwrist 9.74103
lhand -24.0515 -19.6374
lfingers 7.12502
lthumb 2.42767 10.3286
rfemur -70.9808 -9.83059 0.622142
rtibia 82.1688
rfoot -22.7945 20.8393
rtoes 17.3967
lfemur -84.0851 2.88025 -15.6748
ltibia 61.6099
lfoot -7.99526 -8.46564
ltoes -15.1133
1134
root 9.11489 14.4681 9.30374 -217.519 260.008 -468.827
lowerback 15.0354 -0.413258 2.6002
upperback 6.4274 -0.435986 2.2712
thorax -1.62367 -0.331545 0.980753
lowerneck -26.6712 -10.7421 -13.5651
upperneck 21.0197 -14.7179 17.0019
head 14.0755 -5.4567 5.92847
rclavicle 4.77083e-015 -3.02153e-014
rhumerus -6.81646 -8.34196 -74.2979
rradius 48.6185
rwrist -24.4192
rhand -20.3161 -23.9442
rfingers 7.12502
rthumb 6.03464 -53.8382
lclavicle 4.77083e-015 -3.02153e-014
lhumerus -13.7727 -30.4743 84.3855
lradius 70.7016
lwrist 9.6634
lhand -24.4439 -19.9497
lfingers 7.12502
lthumb 2.04869 10.0202
rfemur -71.2452 -9.73071 -0.441139
rtibia 82.023
rfoot -21.9413 21.3772
rtoes 17.1378
lfemur -84.3867 2.82494 -16.1474
ltibia 62.6528
lfoot -9.26449 -8.19667
ltoes -13.0913
1135
root 9.02079 14.4736 9.51411 -221.678 260.382 -464.318
lowerback 14.6832 -0.380338 2.54971
upperback 6.1892 -0.392239 2.17726
thorax -1.68854 -0.304107 0.901135
lowerneck -25.9102 -10.7641 -13.4194
upperneck 20.8478 -14.9501 17.1961
head 13.9098 -5.56874 5.93238
rclavicle -1.90833e-014 0
rhumerus -7.57731 -8.92645 -74.1267
rradius 48.0098
rwrist -24.3066
rhand -20.1225 -24.1066
rfingers 7.12502
rthumb 6.22154 -53.9952
lclavicle -1.90833e-014 0
lhumerus -13.985 -31.2601 84.65
lradius 70.7797
lwrist 10.2643
lhand -25.0325 -20.1285
lfingers 7.12502
lthumb 1.48021 9.8461
rfemur -71.3642 -10.0603 -1.27494
rtibia 81.9168
rfoot -20.6373 22.1355
rtoes 17.4371
lfemur -84.708 2.44166 -16.5304
ltibia 63.6513
lfoot -10.3561 -7.61889
ltoes -11.0125
1136
root 8.92212 14.5061 9.72711 -225.389 260.865 -460.639
lowerback 14.6796 -0.376455 2.7917
upperback 6.15313 -0.356212 2.18551
thorax -1.72448 -0.284437 0.767995
lowerneck -25.6793 -10.9563 -13.499
upperneck 20.6521 -15.3512 17.6552
head 13.9267 -5.71502 6.03516
rclavicle -9.54166e-015 2.54444e-014
rhumerus -7.96374 -10.0924 -73.9066
rradius 46.9575
rwrist -23.3371
rhand -18.4135 -23.0366
rfingers 7.12502
rthumb 7.87128 -52.8701
lclavicle -9.54166e-015 2.54444e-014
lhumerus -13.9077 -31.9086 84.6882
lradius 70.9098
lwrist 10.7577
lhand -25.4877 -20.2892
lfingers 7.12502
lthumb 1.04052 9.68798
rfemur -71.0316 -10.3262 -1.76318
rtibia 81.7873
rfoot -19.1045 22.8608
rtoes 17.4428
lfemur -84.5578 2.0539 -16.7512
ltibia 64.5458
lfoot -11.2816 -6.97396
ltoes -9.41753
1137
root 8.81184 14.5552 9.93174 -230.19 261.337 -456.447
lowerback 15.3894 -0.395646 2.84471
upperback 6.26717 -0.364126 2.35253
thorax -1.9796 -0.300634 0.922275
lowerneck -25.944 -11.1009 -13.5625
upperneck 20.7399 -15.5503 17.7318
head 14.0707 -5.78038 6.02887
rclavicle -1.59028e-015 3.26007e-014
rhumerus -8.21284 -10.4882 -73.6742
rradius 46.2758
rwrist -23.3484
rhand -18.1807 -23.1405
rfingers 7.12502
rthumb 8.09597 -52.9654
lclavicle -1.59028e-015 3.26007e-014
lhumerus -13.5358 -32.0083 84.6991
lradius 70.8205
lwrist 10.4368
lhand -25.3051 -19.7281
lfingers 7.12502
lthumb 1.2169 10.2482
rfemur -70.1565 -10.4739 -2.13243
rtibia 81.7655
rfoot -17.3415 23.3179
rtoes 17.2023
lfemur -83.6135 1.7322 -17.0316
ltibia 65.3241
lfoot -12.2886 -6.30577
ltoes -8.3417
1138
root 8.69977 14.5963 10.1311 -234.843 261.677 -452.575
lowerback 16.1536 -0.414594 3.03469
upperback 6.51127 -0.364621 2.40648
thorax -2.12446 -0.31185 0.880035
lowerneck -26.2156 -11.245 -13.3358
upperneck 20.7184 -15.8146 17.7228
head 14.1454 -5.86179 5.91491
rclavicle -1.74931e-014 -3.33958e-014
rhumerus -8.4121 -11.2784 -73.6214
rradius 45.6145
rwrist -23.1769
rhand -18.627 -23.6022
rfingers 7.12502
rthumb 7.6652 -53.4432
lclavicle -1.74931e-014 -3.33958e-014
lhumerus -13.0148 -32.7726 84.5739
lradius 70.639
lwrist 11.972
lhand -25.9046 -19.4855
lfingers 7.12502
lthumb 0.637854 10.4933
rfemur -69.3686 -11.0828 -2.2311
rtibia 82.0795
rfoot -15.1748 23.3421
rtoes 16.4939
lfemur -82.5069 1.2987 -17.3527
ltibia 66.0443
lfoot -13.2762 -5.53454
ltoes -6.50762
